<svg xmlns="http://www.w3.org/2000/svg" xmlns:xlink="http://www.w3.org/1999/xlink" version="1.1" x="0px" y="0px" viewBox="0 0 28 32.5" style="enable-background:new 0 0 28 26;" xml:space="preserve"><g><path d="M14,0C8.217,0,3.321,3.779,1.634,9h24.732C24.679,3.779,19.783,0,14,0z"/><path d="M19,15c-2.762,0-5-2.238-5-5c0,2.762-2.238,5-5,5c-2.762,0-5-2.238-5-5H1.361C1.134,10.965,1,11.966,1,13   c0,7.18,5.82,13,13,13c7.18,0,13-5.82,13-13c0-1.034-0.134-2.035-0.361-3H24C24,12.762,21.762,15,19,15z M14,21   c-4.219,0-6.328-3.091-6.416-3.223l0.831-0.556C8.492,17.335,10.33,20,14,20c3.689,0,5.565-2.75,5.584-2.777l0.832,0.555   C20.328,17.909,18.219,21,14,21z"/><path d="M0,9v1h1.361c0.08-0.338,0.166-0.673,0.272-1H0z"/><path d="M26.639,10H28V9h-1.634C26.473,9.327,26.559,9.662,26.639,10z"/></g><text x="0" y="41" fill="#000000" font-size="5px" font-weight="bold" font-family="'Helvetica Neue', Helvetica, Arial-Unicode, Arial, Sans-serif">Created by Hea Poh Lin</text><text x="0" y="46" fill="#000000" font-size="5px" font-weight="bold" font-family="'Helvetica Neue', Helvetica, Arial-Unicode, Arial, Sans-serif">from the Noun Project</text></svg>