<svg xmlns="http://www.w3.org/2000/svg" data-name="Layer 1" viewBox="0 0 100 125" x="0px" y="0px"><polygon points="47.65 66.47 42.94 66.47 42.94 71.18 47.65 71.18 52.35 71.18 57.06 71.18 57.06 66.47 52.35 66.47 47.65 66.47"/><polygon points="57.06 61.77 57.06 66.47 61.77 66.47 66.47 66.47 66.47 61.77 61.77 61.77 57.06 61.77"/><polygon points="38.23 61.77 33.53 61.77 33.53 66.47 38.23 66.47 42.94 66.47 42.94 61.77 38.23 61.77"/><rect x="66.47" y="57.06" width="4.71" height="4.71"/><rect x="28.82" y="57.06" width="4.71" height="4.71"/><path d="M85.29,28.82v-4.7h-4.7V19.41H75.88v-4.7H66.47V10H33.53v4.71H24.12v4.7H19.41v4.71h-4.7v9.41H10V66.47h4.71v9.41h4.7v4.71h4.71v4.7h9.41V90H66.47V85.29h9.41v-4.7h4.71V75.88h4.7V66.47H90V33.53H85.29Zm-65.88,0h4.71v-4.7h4.7V19.41h9.42v-4.7H61.76v4.7h9.42v4.71h4.7v4.7h4.71v4.71H19.41ZM85.29,42.94V61.76h-4.7v9.42H75.88v4.7h-4.7v4.71H61.76v4.7H38.24v-4.7H28.82V75.88h-4.7v-4.7H19.41V61.76h-4.7V38.24h4.7v4.7h4.71v4.71h4.7v4.7H42.94v-4.7h4.71V42.94h4.7v4.71h4.71v4.7H71.18v-4.7h4.7V42.94h4.71v-4.7h4.7Z"/>

</svg>