<svg xmlns="http://www.w3.org/2000/svg" version="1.1" viewBox="-5.0 -10.0 110.0 135.0">
 <path d="m88.266 21.621h-76.531c-0.42188 0-0.78125 0.35938-0.78125 0.78125v55.195c0 0.42188 0.35938 0.78125 0.78125 0.78125h76.531c0.42188 0 0.78125-0.35938 0.78125-0.78125v-55.195c0-0.42188-0.35547-0.78125-0.78125-0.78125zm-5.957 12.594-16.211 11.797c0.085938 0.074219 0.16797 0.16016 0.24219 0.25781l14.285 19.48c0.51172 0.69531 0.35938 1.6758-0.33594 2.1836-0.27734 0.20312-0.60156 0.30078-0.92187 0.30078-0.48047 0-0.95313-0.22266-1.2617-0.63672l-14.289-19.48c-0.074218-0.10156-0.12891-0.20703-0.17578-0.31641l-12.723 9.2578c-0.27344 0.19922-0.59766 0.30078-0.91797 0.30078-0.32422 0-0.64453-0.10156-0.91797-0.30078l-12.723-9.2578c-0.046875 0.10938-0.10156 0.21484-0.17578 0.31641l-14.285 19.48c-0.30469 0.41797-0.78125 0.63672-1.2617 0.63672-0.32031 0-0.64453-0.097656-0.92188-0.30078-0.69531-0.51172-0.84766-1.4883-0.33594-2.1836l14.285-19.48c0.070313-0.097656 0.15234-0.17969 0.23828-0.25391l-16.211-11.801c-0.69922-0.50781-0.85156-1.4844-0.34375-2.1836 0.50781-0.69922 1.4844-0.85156 2.1836-0.34375l30.473 22.172 30.473-22.172c0.69922-0.50781 1.6758-0.35547 2.1836 0.34375 0.50391 0.69922 0.34766 1.6758-0.35156 2.1836z"/>
</svg>