<svg xmlns="http://www.w3.org/2000/svg" version="1.1" viewBox="-5.0 -10.0 110.0 135.0">
 <path d="m30.66 86.461c-1.2695-2.4648-2.3906-5.1367-3.3633-7.9727-5.2305 1.3555-10.004 3.1719-14.07 5.4062 7.3125 7.9258 17.145 13.492 28.211 15.402-4.0391-2.5391-7.7188-6.8906-10.777-12.836z"/>
 <path d="m69.34 86.461c-3.0586 5.9492-6.7383 10.301-10.781 12.84 11.066-1.9141 20.898-7.4805 28.211-15.402-4.0703-2.2383-8.8398-4.0586-14.07-5.4102-0.96875 2.8359-2.0938 5.5078-3.3633 7.9727z"/>
 <path d="m73.277 76.719c5.4961 1.4297 10.504 3.3672 14.758 5.7539 7.293-8.5273 11.773-19.523 11.992-31.543h-22.922c-0.085938 9.2305-1.4141 18.07-3.8281 25.789z"/>
 <path d="m22.898 50.93h-22.926c0.21875 12.02 4.6992 23.016 11.992 31.543 4.25-2.3867 9.2617-4.3242 14.758-5.7539-2.4141-7.7188-3.7422-16.559-3.8281-25.789z"/>
 <path d="m26.723 23.281c-5.4922-1.4297-10.504-3.3672-14.758-5.7539-7.2891 8.5273-11.77 19.523-11.992 31.543h22.922c0.085938-9.2305 1.4141-18.07 3.8281-25.789z"/>
 <path d="m77.102 49.07h22.922c-0.21875-12.02-4.6992-23.016-11.992-31.543-4.25 2.3867-9.2617 4.3242-14.758 5.7539 2.4141 7.7188 3.7422 16.559 3.8281 25.789z"/>
 <path d="m69.34 13.539c1.2695 2.4648 2.3906 5.1367 3.3633 7.9727 5.2305-1.3555 10-3.1719 14.07-5.4102-7.3125-7.9258-17.145-13.488-28.211-15.402 4.043 2.5391 7.7227 6.8906 10.781 12.84z"/>
 <path d="m30.66 13.539c3.0586-5.9453 6.7383-10.297 10.777-12.836-11.066 1.9141-20.898 7.4805-28.211 15.402 4.0703 2.2344 8.8438 4.0547 14.07 5.4062 0.96875-2.8359 2.0938-5.5078 3.3633-7.9727z"/>
 <path d="m49.07 100v-24.281c-6.9727 0.0625-13.758 0.87109-19.969 2.3242 4.3828 12.785 11.668 21.355 19.969 21.957z"/>
 <path d="m70.898 78.043c-6.2109-1.4531-12.996-2.2617-19.969-2.3242v24.281c8.3008-0.59766 15.586-9.1719 19.969-21.957z"/>
 <path d="m75.242 50.93h-24.312v22.93c7.1641 0.0625 14.148 0.89844 20.547 2.4141 2.3125-7.3945 3.6797-16.066 3.7656-25.344z"/>
 <path d="m28.523 76.273c6.3945-1.5117 13.383-2.3516 20.547-2.4141v-22.93h-24.312c0.085938 9.2773 1.4531 17.949 3.7656 25.344z"/>
 <path d="m24.758 49.07h24.312v-22.93c-7.1641-0.0625-14.148-0.89844-20.547-2.4141-2.3125 7.3945-3.6836 16.066-3.7656 25.344z"/>
 <path d="m71.477 23.727c-6.3945 1.5117-13.383 2.3516-20.547 2.4141v22.93h24.312c-0.085938-9.2773-1.4531-17.949-3.7656-25.344z"/>
 <path d="m50.93 0v24.281c6.9727-0.0625 13.758-0.87109 19.969-2.3242-4.3828-12.785-11.668-21.359-19.969-21.957z"/>
 <path d="m29.102 21.957c6.2109 1.4531 12.996 2.2617 19.969 2.3242v-24.281c-8.3008 0.59766-15.586 9.1719-19.969 21.957z"/>
</svg>