<svg xmlns="http://www.w3.org/2000/svg" xmlns:xlink="http://www.w3.org/1999/xlink" version="1.1" x="0px" y="0px" viewBox="0 0 100 125" style="enable-background:new 0 0 100 100;" xml:space="preserve"><path d="M50,10c-22.09,0-40,17.91-40,40s17.91,40,40,40s40-17.91,40-40S72.09,10,50,10z M35.97,32.11c3.3,0,5.97,2.68,5.97,5.97  c0,3.3-2.68,5.97-5.97,5.97c-3.3,0-5.97-2.68-5.97-5.97C30,34.79,32.68,32.11,35.97,32.11z M50,75.89c-9.46,0-17.32-6.85-18.9-15.86  H68.9C67.32,69.04,59.46,75.89,50,75.89z M64.03,44.06c-3.3,0-5.97-2.68-5.97-5.97c0-3.3,2.68-5.97,5.97-5.97  c3.3,0,5.97,2.68,5.97,5.97C70,41.39,67.32,44.06,64.03,44.06z"/>
</svg>
